# xmcd
#
# Track frame offsets:
#	150
#	17865
#	33688
#	49410
#	72433
#	85655
#	96540
#	106090
#	119185
#	131843
#
# Disc length: 1951 seconds
#
# Revision: 4
# Processed by: cddbd v1.5.2PL0 Copyright (c) Steve Scherf et al.
# Submitted via: audiograbber 1.83.01
#
DISCID=96079d0a
DTITLE=Alice Cooper - The Studio Albums 1969-1983 [CD 14) - Zipper Catches Skin
DYEAR=1982
DGENRE=Rock
TTITLE0=Zorro's Ascent
TTITLE1=Make That Money (Scrooge's Song)
TTITLE2=I Am The Future
TTITLE3=No Baloney Homosapiens
TTITLE4=Adaptable (Anything For You)
TTITLE5=I Like Girls
TTITLE6=Remarkably Insincere
TTITLE7=Tag, You're It
TTITLE8=I Better Be Good
TTITLE9=I'm Alive (That Was The Day My Dead Pet Returned To Save My Life)
EXTD=
EXTT0=
EXTT1=
EXTT2=
EXTT3=
EXTT4=
EXTT5=
EXTT6=
EXTT7=
EXTT8=
EXTT9=
PLAYORDER=
